<svg id="ac17930f-5392-4bb3-b7df-88911b825043" data-name="Layer 1" xmlns="http://www.w3.org/2000/svg" viewBox="0 0 544.54 78.23"><title>Logo</title><path d="M9.94,52.34q8.22-8.45,21-8.45t21,8.45a28.47,28.47,0,0,1,8.26,20.72,28.49,28.49,0,0,1-8.26,20.72q-8.25,8.44-21,8.44t-21-8.44A28.61,28.61,0,0,1,1.73,73.06,28.59,28.59,0,0,1,9.94,52.34ZM19.8,86.06a13.54,13.54,0,0,0,11.09,5.39A13.69,13.69,0,0,0,42,86.06a20.07,20.07,0,0,0,4.33-13,20.1,20.1,0,0,0-4.33-13,13.69,13.69,0,0,0-11.14-5.39A13.54,13.54,0,0,0,19.8,60.05a20.24,20.24,0,0,0-4.29,13A20.21,20.21,0,0,0,19.8,86.06Z" transform="translate(-1.73 -43.88)" fill="#e31c47"/><path d="M106.78,83.87,119.56,88a28.75,28.75,0,0,1-6.16,7.49,27.65,27.65,0,0,1-8.67,5,30.3,30.3,0,0,1-10.54,1.83q-12.78,0-21-8.49A28.75,28.75,0,0,1,65,73.06a28.59,28.59,0,0,1,8.21-20.72q8.22-8.45,21-8.45a29.45,29.45,0,0,1,15,3.84,26.9,26.9,0,0,1,10.31,10.4l-12.69,4.11a16.15,16.15,0,0,0-5.33-5.47,14.18,14.18,0,0,0-18.4,3.37,20.15,20.15,0,0,0-4.29,13,20.15,20.15,0,0,0,4.29,13,14.12,14.12,0,0,0,18.44,3.33A15.48,15.48,0,0,0,106.78,83.87Z" transform="translate(-1.73 -43.88)" fill="#e31c47"/><path d="M179.16,76.84h-42a19.2,19.2,0,0,0,5.16,10.45,14,14,0,0,0,17.43,2,16.62,16.62,0,0,0,5.43-5.79l12.69,4A26.86,26.86,0,0,1,163,100.39a31,31,0,0,1-10.68,1.83q-12.78,0-21-8.44a28.52,28.52,0,0,1-8.22-20.68,31.33,31.33,0,0,1,3.47-14.74,26.35,26.35,0,0,1,10-10.54,28.77,28.77,0,0,1,15.06-3.93,27.66,27.66,0,0,1,14.79,3.93,25.44,25.44,0,0,1,9.67,10.54,32.73,32.73,0,0,1,3.29,14.74A25.27,25.27,0,0,1,179.16,76.84Zm-41.53-9.76H165a18.18,18.18,0,0,0-4.7-9,11.73,11.73,0,0,0-8.63-3.43,12.7,12.7,0,0,0-9,3.43A17.83,17.83,0,0,0,137.63,67.08Z" transform="translate(-1.73 -43.88)" fill="#e31c47"/><path d="M229.82,45.63h11.87V99.94H229.82V96.47a26.52,26.52,0,0,1-16.34,5.84,30.56,30.56,0,0,1-15.79-4A25.46,25.46,0,0,1,187.61,87.8a32,32,0,0,1-3.33-14.74,31.75,31.75,0,0,1,3.33-14.7,25.55,25.55,0,0,1,10.08-10.5,30.65,30.65,0,0,1,15.79-4,26.86,26.86,0,0,1,16.34,5.39Zm-15,45.82a16.21,16.21,0,0,0,8.45-2.51,20.32,20.32,0,0,0,6.52-6.07V63.06a19.32,19.32,0,0,0-6.39-5.93,16.59,16.59,0,0,0-8.58-2.37,14.35,14.35,0,0,0-11.68,5.34,19.83,19.83,0,0,0-4.38,13,19.85,19.85,0,0,0,4.38,13A14.35,14.35,0,0,0,214.85,91.45Z" transform="translate(-1.73 -43.88)" fill="#e31c47"/><path d="M300,68.81V99.94H288.06V68.81a15.78,15.78,0,0,0-1.42-6.93,9.48,9.48,0,0,0-3.74-4.25,15.52,15.52,0,0,0-5.11-1.78,11.88,11.88,0,0,0-5.62.46,19.81,19.81,0,0,0-5.2,2.55,13.56,13.56,0,0,0-4,4.38,13.32,13.32,0,0,0-1.78,6V99.94h-12V45.63h12v4.93a17.21,17.21,0,0,1,4.84-3.74,22,22,0,0,1,6.57-2.33,34.48,34.48,0,0,1,7.39-.6,18.65,18.65,0,0,1,7.4,1.74A22.66,22.66,0,0,1,293.8,50a19,19,0,0,1,4.52,7.62A34,34,0,0,1,300,68.81Z" transform="translate(-1.73 -43.88)" fill="#e31c47"/><path d="M306.77,45.63h12v3.65a26.63,26.63,0,0,1,16.34-5.39,30.43,30.43,0,0,1,15.75,4,25.61,25.61,0,0,1,10,10.5,31.75,31.75,0,0,1,3.34,14.7,32,32,0,0,1-3.34,14.74,25.52,25.52,0,0,1-10,10.54,30.33,30.33,0,0,1-15.75,4,26.27,26.27,0,0,1-16.34-5.84v25.65h-12Zm12,37.24a19.29,19.29,0,0,0,6.48,6.07,16.29,16.29,0,0,0,8.4,2.51,14.34,14.34,0,0,0,11.68-5.34,19.81,19.81,0,0,0,4.39-13,19.78,19.78,0,0,0-4.39-13,14.34,14.34,0,0,0-11.68-5.34,16.34,16.34,0,0,0-8.53,2.37,19.48,19.48,0,0,0-6.35,5.93Z" transform="translate(-1.73 -43.88)" fill="#e31c47"/><path d="M414.47,45.63h11.87V99.94H414.47V96.47a26.52,26.52,0,0,1-16.34,5.84,30.56,30.56,0,0,1-15.79-4A25.4,25.4,0,0,1,372.26,87.8a32,32,0,0,1-3.33-14.74,31.75,31.75,0,0,1,3.33-14.7,25.48,25.48,0,0,1,10.08-10.5,30.65,30.65,0,0,1,15.79-4,26.86,26.86,0,0,1,16.34,5.39Zm-15,45.82a16.18,16.18,0,0,0,8.44-2.51,20.25,20.25,0,0,0,6.53-6.07V63.06a19.32,19.32,0,0,0-6.39-5.93,16.62,16.62,0,0,0-8.58-2.37,14.34,14.34,0,0,0-11.68,5.34,19.83,19.83,0,0,0-4.38,13,19.85,19.85,0,0,0,4.38,13A14.34,14.34,0,0,0,399.5,91.45Z" transform="translate(-1.73 -43.88)" fill="#e31c47"/><path d="M473.61,83.87,486.39,88a28.75,28.75,0,0,1-6.16,7.49,27.65,27.65,0,0,1-8.67,5A30.3,30.3,0,0,1,461,102.31q-12.78,0-21-8.49a28.75,28.75,0,0,1-8.21-20.76A28.59,28.59,0,0,1,440,52.34q8.22-8.45,21-8.45a29.45,29.45,0,0,1,15,3.84,26.9,26.9,0,0,1,10.31,10.4l-12.69,4.11a16.15,16.15,0,0,0-5.33-5.47,14.17,14.17,0,0,0-18.39,3.37,20.11,20.11,0,0,0-4.3,13,20.11,20.11,0,0,0,4.3,13,14.1,14.1,0,0,0,18.43,3.33A15.48,15.48,0,0,0,473.61,83.87Z" transform="translate(-1.73 -43.88)" fill="#e31c47"/><path d="M546,76.84H504a19.2,19.2,0,0,0,5.16,10.45,14,14,0,0,0,17.43,2A16.62,16.62,0,0,0,532,83.51l12.69,4a26.86,26.86,0,0,1-14.88,12.87,31,31,0,0,1-10.68,1.83q-12.78,0-21-8.44A28.52,28.52,0,0,1,490,73.1a31.33,31.33,0,0,1,3.47-14.74,26.35,26.35,0,0,1,10-10.54,28.77,28.77,0,0,1,15.06-3.93,27.66,27.66,0,0,1,14.79,3.93A25.44,25.44,0,0,1,543,58.36a32.73,32.73,0,0,1,3.29,14.74A25.27,25.27,0,0,1,546,76.84Zm-41.52-9.76h27.38a18.18,18.18,0,0,0-4.7-9,11.71,11.71,0,0,0-8.63-3.43,12.7,12.7,0,0,0-9,3.43A17.74,17.74,0,0,0,504.47,67.08Z" transform="translate(-1.73 -43.88)" fill="#e31c47"/></svg>